<mxfile host="app.diagrams.net" modified="2024-02-25T12:01:22.261Z" agent="Mozilla/5.0 (Macintosh; Intel Mac OS X 10_15_7) AppleWebKit/605.1.15 (KHTML, like Gecko) Version/17.3.1 Safari/605.1.15" etag="blv0SZXXmjAWtJSgQjFY" version="23.1.6" type="github">
  <diagram name="Page-1" id="0GnyyhhpeGBDEnFavClY">
    <mxGraphModel dx="1164" dy="625" grid="0" gridSize="10" guides="1" tooltips="1" connect="1" arrows="1" fold="1" page="1" pageScale="1" pageWidth="827" pageHeight="1169" math="1" shadow="0">
      <root>
        <mxCell id="0" />
        <mxCell id="1" parent="0" />
        <mxCell id="DuUEmoPa-BshUh8_0xZm-65" value="" style="group;fontSize=8;" vertex="1" connectable="0" parent="1">
          <mxGeometry x="160" y="142" width="329" height="278" as="geometry" />
        </mxCell>
        <mxCell id="DuUEmoPa-BshUh8_0xZm-17" value="Enter Username &lt;br style=&quot;font-size: 8px;&quot;&gt;and Password" style="ellipse;whiteSpace=wrap;html=1;fontSize=8;fontFamily=Times New Roman;" vertex="1" parent="DuUEmoPa-BshUh8_0xZm-65">
          <mxGeometry x="103.93781094527364" y="65.45502645502646" width="69.56467661691543" height="28.682539682539687" as="geometry" />
        </mxCell>
        <mxCell id="DuUEmoPa-BshUh8_0xZm-20" value="Log in" style="ellipse;whiteSpace=wrap;html=1;fontSize=8;fontFamily=Times New Roman;fillColor=#f5f5f5;fontColor=#333333;strokeColor=#666666;" vertex="1" parent="DuUEmoPa-BshUh8_0xZm-65">
          <mxGeometry x="98.6181592039801" y="116.20105820105819" width="57.28855721393035" height="27.211640211640205" as="geometry" />
        </mxCell>
        <mxCell id="DuUEmoPa-BshUh8_0xZm-32" style="rounded=0;orthogonalLoop=1;jettySize=auto;html=1;fontSize=8;fontFamily=Times New Roman;" edge="1" parent="DuUEmoPa-BshUh8_0xZm-65" source="DuUEmoPa-BshUh8_0xZm-17" target="DuUEmoPa-BshUh8_0xZm-20">
          <mxGeometry relative="1" as="geometry" />
        </mxCell>
        <mxCell id="DuUEmoPa-BshUh8_0xZm-21" value="Reset Password" style="ellipse;whiteSpace=wrap;html=1;fontSize=8;fontFamily=Times New Roman;" vertex="1" parent="DuUEmoPa-BshUh8_0xZm-65">
          <mxGeometry x="97.59514925373135" width="59.334577114427866" height="27.94708994708995" as="geometry" />
        </mxCell>
        <mxCell id="DuUEmoPa-BshUh8_0xZm-30" style="rounded=0;orthogonalLoop=1;jettySize=auto;html=1;entryX=1;entryY=0;entryDx=0;entryDy=0;fontSize=8;fontFamily=Times New Roman;" edge="1" parent="DuUEmoPa-BshUh8_0xZm-65" source="DuUEmoPa-BshUh8_0xZm-28" target="DuUEmoPa-BshUh8_0xZm-17">
          <mxGeometry relative="1" as="geometry" />
        </mxCell>
        <mxCell id="DuUEmoPa-BshUh8_0xZm-28" value="OTP Verification" style="ellipse;whiteSpace=wrap;html=1;fontSize=8;fontFamily=Times New Roman;" vertex="1" parent="DuUEmoPa-BshUh8_0xZm-65">
          <mxGeometry x="195.59950248756223" y="24.26984126984127" width="64.6542288557214" height="31.62433862433863" as="geometry" />
        </mxCell>
        <mxCell id="DuUEmoPa-BshUh8_0xZm-29" value="" style="rounded=0;orthogonalLoop=1;jettySize=auto;html=1;fontSize=8;fontFamily=Times New Roman;" edge="1" parent="DuUEmoPa-BshUh8_0xZm-65" source="DuUEmoPa-BshUh8_0xZm-21" target="DuUEmoPa-BshUh8_0xZm-28">
          <mxGeometry relative="1" as="geometry" />
        </mxCell>
        <mxCell id="DuUEmoPa-BshUh8_0xZm-35" value="Authenticated User" style="shape=umlActor;verticalLabelPosition=bottom;verticalAlign=top;html=1;fontSize=8;fontFamily=Times New Roman;fillColor=#d5e8d4;strokeColor=#82b366;" vertex="1" parent="DuUEmoPa-BshUh8_0xZm-65">
          <mxGeometry y="151.50264550264552" width="24.55223880597015" height="44.12698412698413" as="geometry" />
        </mxCell>
        <mxCell id="DuUEmoPa-BshUh8_0xZm-36" value="Unauthenticated User" style="shape=umlActor;verticalLabelPosition=bottom;verticalAlign=top;html=1;fontSize=8;fontFamily=Times New Roman;fillColor=#f8cecc;strokeColor=#b85450;" vertex="1" parent="DuUEmoPa-BshUh8_0xZm-65">
          <mxGeometry x="24.55223880597015" y="15.444444444444446" width="24.55223880597015" height="44.12698412698413" as="geometry" />
        </mxCell>
        <mxCell id="DuUEmoPa-BshUh8_0xZm-22" style="rounded=0;orthogonalLoop=1;jettySize=auto;html=1;entryX=0;entryY=0.5;entryDx=0;entryDy=0;fontSize=8;fontFamily=Times New Roman;exitX=1;exitY=1;exitDx=0;exitDy=0;exitPerimeter=0;" edge="1" parent="DuUEmoPa-BshUh8_0xZm-65" source="DuUEmoPa-BshUh8_0xZm-36" target="DuUEmoPa-BshUh8_0xZm-17">
          <mxGeometry relative="1" as="geometry">
            <mxPoint x="-1.63681592039801" y="27.94708994708995" as="sourcePoint" />
          </mxGeometry>
        </mxCell>
        <mxCell id="DuUEmoPa-BshUh8_0xZm-26" style="rounded=0;orthogonalLoop=1;jettySize=auto;html=1;entryX=0;entryY=0.5;entryDx=0;entryDy=0;fontSize=8;fontFamily=Times New Roman;" edge="1" parent="DuUEmoPa-BshUh8_0xZm-65" source="DuUEmoPa-BshUh8_0xZm-36" target="DuUEmoPa-BshUh8_0xZm-21">
          <mxGeometry relative="1" as="geometry">
            <mxPoint x="-11.45771144278607" y="14.812645998938022" as="sourcePoint" />
          </mxGeometry>
        </mxCell>
        <mxCell id="DuUEmoPa-BshUh8_0xZm-38" style="rounded=0;orthogonalLoop=1;jettySize=auto;html=1;entryX=0.869;entryY=0.336;entryDx=0;entryDy=0;entryPerimeter=0;fontSize=8;fontFamily=Times New Roman;" edge="1" parent="DuUEmoPa-BshUh8_0xZm-65" source="DuUEmoPa-BshUh8_0xZm-20" target="DuUEmoPa-BshUh8_0xZm-35">
          <mxGeometry relative="1" as="geometry" />
        </mxCell>
        <mxCell id="DuUEmoPa-BshUh8_0xZm-39" value="View" style="ellipse;whiteSpace=wrap;html=1;fontSize=8;fontFamily=Times New Roman;" vertex="1" parent="DuUEmoPa-BshUh8_0xZm-65">
          <mxGeometry x="99.84577114427861" y="162.53439153439152" width="59.743781094527364" height="22.063492063492063" as="geometry" />
        </mxCell>
        <mxCell id="DuUEmoPa-BshUh8_0xZm-46" style="rounded=0;orthogonalLoop=1;jettySize=auto;html=1;fontSize=8;" edge="1" parent="DuUEmoPa-BshUh8_0xZm-65" source="DuUEmoPa-BshUh8_0xZm-35" target="DuUEmoPa-BshUh8_0xZm-39">
          <mxGeometry relative="1" as="geometry" />
        </mxCell>
        <mxCell id="DuUEmoPa-BshUh8_0xZm-40" value="Branch/Department&lt;br style=&quot;font-size: 8px;&quot;&gt;Information" style="ellipse;whiteSpace=wrap;html=1;fontSize=8;fontFamily=Times New Roman;" vertex="1" parent="DuUEmoPa-BshUh8_0xZm-65">
          <mxGeometry x="188.23383084577117" y="134.5873015873016" width="72.01990049751242" height="34.56613756613756" as="geometry" />
        </mxCell>
        <mxCell id="DuUEmoPa-BshUh8_0xZm-54" style="rounded=0;orthogonalLoop=1;jettySize=auto;html=1;fontSize=8;" edge="1" parent="DuUEmoPa-BshUh8_0xZm-65" source="DuUEmoPa-BshUh8_0xZm-39" target="DuUEmoPa-BshUh8_0xZm-40">
          <mxGeometry relative="1" as="geometry" />
        </mxCell>
        <mxCell id="DuUEmoPa-BshUh8_0xZm-41" value="Employees" style="ellipse;whiteSpace=wrap;html=1;fontSize=8;fontFamily=Times New Roman;" vertex="1" parent="DuUEmoPa-BshUh8_0xZm-65">
          <mxGeometry x="260.25373134328356" y="175.7724867724868" width="65.4726368159204" height="28.682539682539687" as="geometry" />
        </mxCell>
        <mxCell id="DuUEmoPa-BshUh8_0xZm-42" value="Suppliers" style="ellipse;whiteSpace=wrap;html=1;fontSize=8;fontFamily=Times New Roman;" vertex="1" parent="DuUEmoPa-BshUh8_0xZm-65">
          <mxGeometry x="263.5273631840796" y="212.91269841269843" width="65.4726368159204" height="30.52116402116402" as="geometry" />
        </mxCell>
        <mxCell id="DuUEmoPa-BshUh8_0xZm-43" value="Clients" style="ellipse;whiteSpace=wrap;html=1;fontSize=8;fontFamily=Times New Roman;" vertex="1" parent="DuUEmoPa-BshUh8_0xZm-65">
          <mxGeometry x="264.3457711442786" y="249.31746031746027" width="63.83582089552239" height="28.682539682539687" as="geometry" />
        </mxCell>
        <mxCell id="DuUEmoPa-BshUh8_0xZm-48" style="rounded=0;orthogonalLoop=1;jettySize=auto;html=1;entryX=0;entryY=0.5;entryDx=0;entryDy=0;fontSize=8;" edge="1" parent="DuUEmoPa-BshUh8_0xZm-65" source="DuUEmoPa-BshUh8_0xZm-44" target="DuUEmoPa-BshUh8_0xZm-41">
          <mxGeometry relative="1" as="geometry" />
        </mxCell>
        <mxCell id="DuUEmoPa-BshUh8_0xZm-52" style="rounded=0;orthogonalLoop=1;jettySize=auto;html=1;entryX=0;entryY=0.5;entryDx=0;entryDy=0;fontSize=8;" edge="1" parent="DuUEmoPa-BshUh8_0xZm-65" source="DuUEmoPa-BshUh8_0xZm-44" target="DuUEmoPa-BshUh8_0xZm-42">
          <mxGeometry relative="1" as="geometry" />
        </mxCell>
        <mxCell id="DuUEmoPa-BshUh8_0xZm-53" style="rounded=0;orthogonalLoop=1;jettySize=auto;html=1;entryX=0;entryY=0.5;entryDx=0;entryDy=0;fontSize=8;" edge="1" parent="DuUEmoPa-BshUh8_0xZm-65" source="DuUEmoPa-BshUh8_0xZm-44" target="DuUEmoPa-BshUh8_0xZm-43">
          <mxGeometry relative="1" as="geometry" />
        </mxCell>
        <mxCell id="DuUEmoPa-BshUh8_0xZm-44" value="Records" style="ellipse;whiteSpace=wrap;html=1;fontSize=8;fontFamily=Times New Roman;" vertex="1" parent="DuUEmoPa-BshUh8_0xZm-65">
          <mxGeometry x="177.59452736318408" y="191.95238095238093" width="65.4726368159204" height="36.404761904761905" as="geometry" />
        </mxCell>
        <mxCell id="DuUEmoPa-BshUh8_0xZm-47" style="rounded=0;orthogonalLoop=1;jettySize=auto;html=1;fontSize=8;" edge="1" parent="DuUEmoPa-BshUh8_0xZm-65" source="DuUEmoPa-BshUh8_0xZm-39" target="DuUEmoPa-BshUh8_0xZm-44">
          <mxGeometry relative="1" as="geometry" />
        </mxCell>
        <mxCell id="DuUEmoPa-BshUh8_0xZm-55" value="Add/ Insert" style="ellipse;whiteSpace=wrap;html=1;fontSize=8;fontFamily=Times New Roman;" vertex="1" parent="DuUEmoPa-BshUh8_0xZm-65">
          <mxGeometry x="99.84577114427861" y="189.3783068783069" width="59.743781094527364" height="23.53439153439154" as="geometry" />
        </mxCell>
        <mxCell id="DuUEmoPa-BshUh8_0xZm-57" style="rounded=0;orthogonalLoop=1;jettySize=auto;html=1;fontSize=8;" edge="1" parent="DuUEmoPa-BshUh8_0xZm-65" source="DuUEmoPa-BshUh8_0xZm-35" target="DuUEmoPa-BshUh8_0xZm-55">
          <mxGeometry relative="1" as="geometry" />
        </mxCell>
        <mxCell id="DuUEmoPa-BshUh8_0xZm-60" style="rounded=0;orthogonalLoop=1;jettySize=auto;html=1;entryX=0;entryY=1;entryDx=0;entryDy=0;fontSize=8;" edge="1" parent="DuUEmoPa-BshUh8_0xZm-65" source="DuUEmoPa-BshUh8_0xZm-56" target="DuUEmoPa-BshUh8_0xZm-44">
          <mxGeometry relative="1" as="geometry" />
        </mxCell>
        <mxCell id="DuUEmoPa-BshUh8_0xZm-56" value="Delete/ Remove" style="ellipse;whiteSpace=wrap;html=1;fontSize=8;fontFamily=Times New Roman;" vertex="1" parent="DuUEmoPa-BshUh8_0xZm-65">
          <mxGeometry x="98.6181592039801" y="220.63492063492066" width="62.199004975124375" height="22.7989417989418" as="geometry" />
        </mxCell>
        <mxCell id="DuUEmoPa-BshUh8_0xZm-58" style="rounded=0;orthogonalLoop=1;jettySize=auto;html=1;fontSize=8;" edge="1" parent="DuUEmoPa-BshUh8_0xZm-65" source="DuUEmoPa-BshUh8_0xZm-35" target="DuUEmoPa-BshUh8_0xZm-56">
          <mxGeometry relative="1" as="geometry" />
        </mxCell>
        <mxCell id="DuUEmoPa-BshUh8_0xZm-59" style="rounded=0;orthogonalLoop=1;jettySize=auto;html=1;entryX=0.001;entryY=0.595;entryDx=0;entryDy=0;entryPerimeter=0;fontSize=8;" edge="1" parent="DuUEmoPa-BshUh8_0xZm-65" source="DuUEmoPa-BshUh8_0xZm-55" target="DuUEmoPa-BshUh8_0xZm-44">
          <mxGeometry relative="1" as="geometry" />
        </mxCell>
        <mxCell id="DuUEmoPa-BshUh8_0xZm-63" style="rounded=0;orthogonalLoop=1;jettySize=auto;html=1;entryX=0.5;entryY=1;entryDx=0;entryDy=0;fontSize=8;" edge="1" parent="DuUEmoPa-BshUh8_0xZm-65" source="DuUEmoPa-BshUh8_0xZm-61" target="DuUEmoPa-BshUh8_0xZm-44">
          <mxGeometry relative="1" as="geometry" />
        </mxCell>
        <mxCell id="DuUEmoPa-BshUh8_0xZm-61" value="Search" style="ellipse;whiteSpace=wrap;html=1;fontSize=8;fontFamily=Times New Roman;" vertex="1" parent="DuUEmoPa-BshUh8_0xZm-65">
          <mxGeometry x="98.6181592039801" y="249.31746031746027" width="58.92537313432836" height="22.7989417989418" as="geometry" />
        </mxCell>
        <mxCell id="DuUEmoPa-BshUh8_0xZm-62" style="rounded=0;orthogonalLoop=1;jettySize=auto;html=1;entryX=0;entryY=0.5;entryDx=0;entryDy=0;fontSize=8;" edge="1" parent="DuUEmoPa-BshUh8_0xZm-65" source="DuUEmoPa-BshUh8_0xZm-35" target="DuUEmoPa-BshUh8_0xZm-61">
          <mxGeometry relative="1" as="geometry" />
        </mxCell>
      </root>
    </mxGraphModel>
  </diagram>
</mxfile>
